<?xml version="1.0"?>
<svg xmlns="http://www.w3.org/2000/svg" xmlns:xlink="http://www.w3.org/1999/xlink" xmlns:svgjs="http://svgjs.com/svgjs" version="1.1" width="512" height="512" x="0" y="0" viewBox="0 0 512 512" style="enable-background:new 0 0 512 512" xml:space="preserve"><g><path xmlns="http://www.w3.org/2000/svg" d="M272,184H240a56.055,56.055,0,0,1-55.967-54.682l-60.188,31.891A103.578,103.578,0,0,0,70,234.9C60.976,285.246,57.735,368.355,92.731,480H156.55a104.1,104.1,0,0,1-46.7-107.459l9.978-52.385a41.028,41.028,0,0,1-2.8-4.234,39.581,39.581,0,0,1,.135-40.077l27.928-47.876a8,8,0,1,1,13.82,8.062l-27.928,47.876A24,24,0,0,0,151.713,320H216a24.113,24.113,0,0,0,19.2-9.6l14.4-19.2a8,8,0,0,1,12.8,0l14.4,19.2A24.113,24.113,0,0,0,296,320h64.287a24,24,0,0,0,20.731-36.093L353.09,236.031a8,8,0,0,1,13.82-8.062l27.928,47.876a39.581,39.581,0,0,1,.135,40.077,41.028,41.028,0,0,1-2.8,4.234l9.978,52.384A104.1,104.1,0,0,1,355.45,480h63.819c35-111.645,31.755-194.754,22.731-245.1a103.579,103.579,0,0,0-53.844-73.692l-60.189-31.892A56.055,56.055,0,0,1,272,184Z" fill="#ffffff" data-original="#000000" style=""/><path xmlns="http://www.w3.org/2000/svg" d="M240,168h32a40.045,40.045,0,0,0,40-40V111.541a67.974,67.974,0,0,1-41.126-20.474c-10.45,7.225-33.269,19.247-70.874,20.771V128A40.045,40.045,0,0,0,240,168Z" fill="#ffffff" data-original="#000000" style=""/><path xmlns="http://www.w3.org/2000/svg" d="M367.785,448.1a87.736,87.736,0,0,0,18.65-72.569l-8.316-43.658A40.067,40.067,0,0,1,360.287,336H296a40.191,40.191,0,0,1-32-16l-8-10.667L248,320a40.191,40.191,0,0,1-32,16H151.713a40.067,40.067,0,0,1-17.832-4.124l-8.316,43.658A88,88,0,0,0,212.012,480h87.976A87.729,87.729,0,0,0,367.785,448.1ZM256,448a8,8,0,1,1,8-8A8,8,0,0,1,256,448Z" fill="#ffffff" data-original="#000000" style=""/><path xmlns="http://www.w3.org/2000/svg" d="M266.382,74.305a7.963,7.963,0,0,1,12.274,1.257A51.58,51.58,0,0,0,312,95.409V56a24.027,24.027,0,0,0-24-24H224a24.027,24.027,0,0,0-24,24V95.823c22.717-1.02,38.886-6.241,48.786-10.694C260.68,79.779,266.326,74.359,266.382,74.305Z" fill="#ffffff" data-original="#000000" style=""/></g></svg>
