<?xml version="1.0"?>
<svg xmlns="http://www.w3.org/2000/svg" xmlns:xlink="http://www.w3.org/1999/xlink" xmlns:svgjs="http://svgjs.com/svgjs" version="1.1" width="512" height="512" x="0" y="0" viewBox="0 0 512 512" style="enable-background:new 0 0 512 512" xml:space="preserve" class=""><g><g xmlns="http://www.w3.org/2000/svg"><path d="m254.049 194.281c1.469 1.468 3.394 2.203 5.319 2.203s3.85-.735 5.319-2.203l3.973-3.973 3.973 3.973c1.469 1.468 3.395 2.203 5.319 2.203s3.85-.735 5.319-2.203c2.937-2.938 2.937-7.7 0-10.638l-3.973-3.973 3.973-3.973c2.937-2.938 2.937-7.7 0-10.638-2.938-2.936-7.7-2.936-10.638 0l-3.973 3.973-3.973-3.973c-2.938-2.936-7.7-2.936-10.638 0-2.937 2.938-2.937 7.7 0 10.638l3.973 3.973-3.973 3.973c-2.938 2.938-2.938 7.7 0 10.638z" fill="#ffffff" data-original="#000000" style="" class=""/><path d="m345.771 194.281c1.469 1.468 3.395 2.203 5.319 2.203s3.85-.735 5.319-2.203l3.973-3.973 3.973 3.973c1.469 1.468 3.395 2.203 5.319 2.203s3.85-.735 5.319-2.203c2.937-2.938 2.937-7.7 0-10.638l-3.973-3.973 3.973-3.973c2.937-2.938 2.937-7.7 0-10.638-2.938-2.936-7.7-2.936-10.638 0l-3.973 3.973-3.973-3.973c-2.938-2.936-7.7-2.936-10.638 0-2.937 2.938-2.937 7.7 0 10.638l3.973 3.973-3.973 3.973c-2.938 2.938-2.938 7.7 0 10.638z" fill="#ffffff" data-original="#000000" style="" class=""/><path d="m295.913 239.828h37.215c4.155 0 7.522-3.367 7.522-7.522s-3.367-7.522-7.522-7.522h-37.215c-4.155 0-7.522 3.367-7.522 7.522.001 4.155 3.368 7.522 7.522 7.522z" fill="#ffffff" data-original="#000000" style="" class=""/><path d="m274.361 496.957h-36.843v-81.166c0-4.155-3.367-7.522-7.522-7.522s-7.522 3.367-7.522 7.522v35.445h-56.814v-26.799c0-30.838 10.761-60.917 30.302-84.697 17.276-21.023 40.659-36.311 66.586-43.714 3.102 25.931 25.219 46.106 51.973 46.106s48.871-20.175 51.972-46.108c19.794 5.64 38.119 15.85 53.44 29.857 1.443 1.319 3.26 1.97 5.073 1.97 2.038 0 4.069-.824 5.553-2.446 2.803-3.066 2.59-7.823-.476-10.626-15.374-14.056-33.476-24.663-53.043-31.217 17.07-13.22 29.863-31.708 35.91-53.008 3.403 1.012 6.951 1.54 10.547 1.54 20.423 0 37.039-16.616 37.039-37.039 0-7.992-2.553-15.394-6.874-21.452 18.549-46.047 18.634-90.843.094-123.479-11.408-20.08-28.874-33.074-47.92-35.647-20.011-2.702-35.653 1.786-43.901 5.106-2.14-2.489-5.204-5.384-9.49-8.163-12.73-8.255-30.407-12.062-52.53-11.33-18.32.61-35.535 7.824-54.175 22.703-3.247 2.59-3.777 7.324-1.186 10.57 2.589 3.246 7.322 3.779 10.57 1.186 15.981-12.755 30.374-18.928 45.294-19.425 41.436-1.371 51.351 15.673 52.027 16.94.77 2.052 2.354 3.498 4.421 4.251 2.098.763 4.375.38 6.304-.741.164-.096 16.596-9.449 40.652-6.192 14.354 1.939 27.787 12.207 36.855 28.17 7.533 13.26 22 49.188 1.04 105.272-5.384-3.055-11.598-4.81-18.218-4.81-2.245 0-4.481.213-6.678.616v-1.231c0-10.461-4.337-20.46-11.897-27.434-17.161-15.831-36.602-43.756-44.164-55.026-2.151-3.207-5.591-5.213-9.439-5.504-3.877-.289-7.6 1.188-10.23 4.06-38.976 42.569-90.376 56.385-110.667 60.348-10.547 2.061-18.202 11.367-18.202 22.127v2.66c-2.198-.403-4.433-.616-6.678-.616-4.043 0-7.933.66-11.578 1.863-6.77-11.059-21.974-39.829-23.591-77.369 6.807.694 16.367.907 25.437-1.539 13.154-3.547 25.516-15.338 37.472-26.742 3.006-2.867 3.118-7.627.251-10.634-2.868-3.006-7.628-3.118-10.634-.251-10.593 10.104-21.547 20.552-31.005 23.103-12.501 3.37-27.289-.024-27.425-.055-2.217-.527-4.559-.021-6.36 1.381-1.801 1.4-2.869 3.543-2.902 5.825-.669 45.489 17.283 80.137 25.697 93.83-7.603 6.788-12.401 16.654-12.401 27.624 0 20.423 16.615 37.039 37.038 37.039 3.597 0 7.144-.528 10.548-1.54 6.047 21.298 18.839 39.784 35.906 53.003-26.28 8.825-49.88 24.999-67.656 46.632-21.747 26.464-33.723 59.935-33.723 94.248v80.042c0 4.155 3.367 7.522 7.522 7.522h116.222c4.155 0 7.522-3.367 7.522-7.522-.001-4.15-3.368-7.517-7.523-7.517zm142.46-294.31v-28.547c2.15-.684 4.406-1.041 6.678-1.041 12.129 0 21.996 9.867 21.996 21.995 0 12.129-9.867 21.996-21.996 21.996-2.58 0-5.117-.454-7.511-1.325.549-4.284.833-8.648.833-13.078zm-211.278 14.403c-12.128 0-21.995-9.867-21.995-21.996 0-12.128 9.867-21.995 21.995-21.995 2.273 0 4.529.357 6.678 1.04v28.548c0 4.43.284 8.795.833 13.078-2.393.871-4.931 1.325-7.511 1.325zm108.978 110.038c-17.651 0-32.467-12.321-36.327-28.811 11.295 4.305 23.539 6.671 36.327 6.671s25.031-2.366 36.326-6.67c-3.86 16.489-18.676 28.81-36.326 28.81zm-87.256-124.441v-46.675c0-3.582 2.542-6.678 6.044-7.363 21.385-4.177 75.026-18.589 116.736-62.655 8.838 12.993 27.592 39.307 44.679 55.07 4.483 4.135 7.053 10.104 7.053 16.377v45.246c0 48.114-39.143 87.257-87.257 87.257-48.113 0-87.255-39.143-87.255-87.257zm-4.791 294.31h-56.814v-30.678h56.814z" fill="#ffffff" data-original="#000000" style="" class=""/><path d="m451.066 338.514c-2.403-3.386-7.099-4.185-10.487-1.777-3.387 2.405-4.182 7.1-1.777 10.487 16.079 22.64 24.579 49.339 24.579 77.212v26.799h-56.814v-35.445c0-4.155-3.367-7.522-7.522-7.522s-7.522 3.367-7.522 7.522v81.166h-87.106c-4.155 0-7.522 3.367-7.522 7.522s3.367 7.522 7.522 7.522h166.485c4.155 0 7.522-3.367 7.522-7.522v-80.042c.001-31.011-9.46-60.723-27.358-85.922zm12.315 158.443h-56.814v-30.678h56.814z" fill="#ffffff" data-original="#000000" style="" class=""/><path d="m174.407 281.625c1.231-2.659.807-5.791-1.088-8.026-.247-.291-24.794-29.473-32.881-58.956-3.197-11.655-4.488-29.067-3.735-50.355.498-14.083-4.602-27.407-14.363-37.519-9.705-10.054-22.746-15.592-36.72-15.592h-.328c-26.382 0-48.243 19.716-50.853 45.861-2.637 26.426-.502 63.759 24.65 91.548 22.462 24.816 58.965 37.399 108.493 37.399 2.93.001 5.593-1.701 6.825-4.36zm-104.165-43.134c-11.84-13.081-25.065-37.571-20.834-79.958 1.838-18.421 17.265-32.313 35.884-32.313h.328c9.856 0 19.052 3.905 25.896 10.995 6.9 7.149 10.506 16.574 10.153 26.539-.818 23.116.616 41.577 4.262 54.867 5.535 20.183 17.524 39.635 26.137 51.86-37.162-2.276-64.645-13.009-81.826-31.99z" fill="#ffffff" data-original="#000000" style="" class=""/><path d="m69.94 159.014c-4.155 0-7.522 3.367-7.522 7.522v7.683c0 4.155 3.367 7.522 7.522 7.522 4.154 0 7.522-3.367 7.522-7.522v-7.683c-.001-4.155-3.368-7.522-7.522-7.522z" fill="#ffffff" data-original="#000000" style="" class=""/><path d="m99.951 159.014c-4.155 0-7.522 3.367-7.522 7.522v7.683c0 4.155 3.367 7.522 7.522 7.522s7.522-3.367 7.522-7.522v-7.683c0-4.155-3.367-7.522-7.522-7.522z" fill="#ffffff" data-original="#000000" style="" class=""/></g></g></svg>
